<?xml version="1.0" encoding="UTF-8" standalone="no"?>
<!-- Generator: Adobe Illustrator 16.0.0, SVG Export Plug-In . SVG Version: 6.00 Build 0)  -->

<svg
   xmlns:osb="http://www.openswatchbook.org/uri/2009/osb"
   xmlns:dc="http://purl.org/dc/elements/1.1/"
   xmlns:cc="http://creativecommons.org/ns#"
   xmlns:rdf="http://www.w3.org/1999/02/22-rdf-syntax-ns#"
   xmlns:svg="http://www.w3.org/2000/svg"
   xmlns="http://www.w3.org/2000/svg"
   xmlns:xlink="http://www.w3.org/1999/xlink"
   xmlns:sodipodi="http://sodipodi.sourceforge.net/DTD/sodipodi-0.dtd"
   xmlns:inkscape="http://www.inkscape.org/namespaces/inkscape"
   version="1.1"
   x="0px"
   y="0px"
   width="323.59375"
   height="323.59375"
   viewBox="0 0 323.59375 323.59375"
   enable-background="new 0 0 1000 1000"
   xml:space="preserve"
   id="svg2"
   inkscape:version="0.91 r13725"
   sodipodi:docname="notifyte.svg"
   inkscape:export-filename="/Users/jared/Downloads/FW_ n/icon.png"
   inkscape:export-xdpi="19.322041"
   inkscape:export-ydpi="19.322041"><metadata
     id="metadata54"><rdf:RDF><cc:Work
         rdf:about=""><dc:format>image/svg+xml</dc:format><dc:type
           rdf:resource="http://purl.org/dc/dcmitype/StillImage" /><dc:title></dc:title></cc:Work></rdf:RDF></metadata><defs
     id="defs52"><linearGradient
       inkscape:collect="always"
       id="linearGradient4164"><stop
         style="stop-color:#34495e;stop-opacity:1;"
         offset="0"
         id="stop4166" /><stop
         style="stop-color:#46637f;stop-opacity:0.98717946"
         offset="1"
         id="stop4168" /></linearGradient><linearGradient
       id="linearGradient6203"
       osb:paint="solid"><stop
         style="stop-color:#34495e;stop-opacity:1;"
         offset="0"
         id="stop6205" /></linearGradient><linearGradient
       inkscape:collect="always"
       xlink:href="#linearGradient4164"
       id="linearGradient4170"
       x1="122.74223"
       y1="240.0396"
       x2="124.60487"
       y2="1.8070886"
       gradientUnits="userSpaceOnUse"
       gradientTransform="matrix(1.1363285,0,0,1.1363285,-10.25261,-20.827936)" /><filter
       inkscape:collect="always"
       style="color-interpolation-filters:sRGB"
       id="filter4470"
       x="-0.048"
       width="1.096"
       y="-0.048"
       height="1.096"><feGaussianBlur
         inkscape:collect="always"
         stdDeviation="5.4281665"
         id="feGaussianBlur4472" /></filter></defs><sodipodi:namedview
     pagecolor="#ffffff"
     bordercolor="#666666"
     borderopacity="1"
     objecttolerance="10"
     gridtolerance="10"
     guidetolerance="10"
     inkscape:pageopacity="0"
     inkscape:pageshadow="2"
     inkscape:window-width="1746"
     inkscape:window-height="962"
     id="namedview50"
     showgrid="false"
     inkscape:zoom="2.6700352"
     inkscape:cx="95.189688"
     inkscape:cy="169.53732"
     inkscape:window-x="28"
     inkscape:window-y="0"
     inkscape:window-maximized="0"
     inkscape:current-layer="layer1"
     fit-margin-top="0"
     fit-margin-left="0"
     fit-margin-right="0"
     fit-margin-bottom="0"
     showguides="false" /><g
     transform="translate(34.549371,44.567288)"
     style="display:inline"
     inkscape:label="Shadow"
     id="g4406"
     inkscape:groupmode="layer"
     sodipodi:insensitive="true"><circle
       r="135.70416"
       cy="116.58072"
       cx="127.15607"
       id="circle4408"
       style="fill:#000000;fill-opacity:1;stroke:none;stroke-width:10.5;stroke-miterlimit:4;stroke-dasharray:none;stroke-opacity:0.51764706;filter:url(#filter4470)" /></g><g
     id="Layer_1"
     display="none"
     style="display:none"
     transform="translate(-584.78992,-7.382228)"><rect
       x="120.5"
       y="89.222"
       display="inline"
       stroke-miterlimit="10"
       width="293.056"
       height="293.056"
       id="rect5"
       style="display:inline;fill:#ffffff;stroke:#000000;stroke-miterlimit:10" /></g><g
     inkscape:groupmode="layer"
     id="layer2"
     inkscape:label="Fill"
     style="display:inline"
     transform="translate(34.549371,44.567288)"
     sodipodi:insensitive="true"><circle
       style="fill:url(#linearGradient4170);fill-opacity:1;stroke:#110f11;stroke-width:12;stroke-linecap:butt;stroke-linejoin:miter;stroke-miterlimit:4;stroke-dasharray:none;stroke-opacity:0.51764706"
       id="path4228"
       cx="127.15607"
       cy="116.58072"
       r="135.70416" /></g><g
     transform="translate(34.549371,44.567288)"
     style="display:inline"
     inkscape:label="White Outline"
     id="g4402"
     inkscape:groupmode="layer"
     sodipodi:insensitive="true"><circle
       r="135.70416"
       cy="116.58072"
       cx="127.15607"
       id="circle4404"
       style="fill:none;fill-opacity:1;stroke:#ffffff;stroke-width:12;stroke-miterlimit:4;stroke-dasharray:none;stroke-opacity:1" /></g><g
     inkscape:groupmode="layer"
     id="layer1"
     inkscape:label="N"
     style="display:inline"
     transform="translate(34.549371,44.567288)"
     sodipodi:insensitive="true"><g
       id="g4205"
       style="fill:#ffffff;fill-opacity:1;stroke:#ffffff;stroke-width:2.5;stroke-miterlimit:4;stroke-dasharray:none;stroke-opacity:1"
       transform="translate(6,-4)"><g
         style="fill:#ffffff;fill-opacity:1;stroke:#ffffff;stroke-width:2.5;stroke-miterlimit:4;stroke-dasharray:none;stroke-opacity:1"
         transform="translate(-638.40708,-117.62748)"
         id="g32"><path
           style="fill:#ffffff;fill-opacity:1;stroke:#ffffff;stroke-width:2.5;stroke-miterlimit:4;stroke-dasharray:none;stroke-opacity:1"
           d="m 704.39,322.333 c -11.855,0 -21.5,-9.645 -21.5,-21.5 l 0,-118 c 0,-11.855 9.645,-21.5 21.5,-21.5 11.855,0 21.5,9.645 21.5,21.5 l 0,118 c 0,11.855 -9.645,21.5 -21.5,21.5 z m 0,-158 c -10.201,0 -18.5,8.299 -18.5,18.5 l 0,118 c 0,10.201 8.299,18.5 18.5,18.5 10.201,0 18.5,-8.299 18.5,-18.5 l 0,-118 c 0,-10.201 -8.299,-18.5 -18.5,-18.5 z"
           id="path36"
           inkscape:connector-curvature="0" /></g><path
         style="fill:#ffffff;fill-opacity:1;stroke:#ffffff;stroke-width:2.5;stroke-miterlimit:4;stroke-dasharray:none;stroke-opacity:1"
         d="m 176.24552,205.24556 c -11.855,0 -21.5,-9.645 -21.5,-21.5 l 0,-117.999996 c 0,-11.855 9.645,-21.5 21.5,-21.5 11.855,0 21.5,9.645 21.5,21.5 l 0,117.999996 c 0,11.855 -9.644,21.5 -21.5,21.5 z m 0,-157.999996 c -10.201,0 -18.5,8.299 -18.5,18.5 l 0,117.999996 c 0,10.201 8.299,18.5 18.5,18.5 10.201,0 18.5,-8.299 18.5,-18.5 l 0,-117.999996 c 0,-10.201 -8.298,-18.5 -18.5,-18.5 z"
         id="path40"
         inkscape:connector-curvature="0" /><g
         style="fill:#ffffff;fill-opacity:1;stroke:#ffffff;stroke-width:2.5;stroke-miterlimit:4;stroke-dasharray:none;stroke-opacity:1"
         transform="translate(-638.04426,-117.06971)"
         id="g44"><path
           style="fill:#ffffff;fill-opacity:1;stroke:#ffffff;stroke-width:2.5;stroke-miterlimit:4;stroke-dasharray:none;stroke-opacity:1"
           sodipodi:nodetypes="ccccccc"
           d="m 704.05596,163.77638 c 5.146,0 9.926,2.061 13.448,5.792 l 96.523,104.027 0,-4.411 -94.333,-101.666 c -4.104,-4.349 -9.657,-6.743 -15.639,-6.743 -2.45343,1.13556 -2.72837,1.90491 10e-4,3.001 z"
           id="path46"
           inkscape:connector-curvature="0" /><path
           style="fill:#ffffff;fill-opacity:1;stroke:#ffffff;stroke-width:2.5;stroke-miterlimit:4;stroke-dasharray:none;stroke-opacity:1"
           sodipodi:nodetypes="ccccccc"
           d="m 814.215,319.333 c -5.146,0 -9.926,-2.061 -13.448,-5.792 l -96.377,-103.869 0,4.41 94.187,101.508 c 4.104,4.349 9.657,6.743 15.639,6.743 1.48571,-1.66331 1.56939,-1.57105 -10e-4,-3 z"
           id="path48"
           inkscape:connector-curvature="0" /></g></g></g></svg>